<svg width="42" height="42" viewBox="0 0 42 42" fill="none" xmlns="http://www.w3.org/2000/svg">
<g filter="url(#filter0_d_4_13)">
<path fill-rule="evenodd" clip-rule="evenodd" d="M38 17.1027C38 7.65804 30.3879 0 21 0C11.6121 0 4 7.65804 4 17.1027C4 25.6388 10.2156 32.7142 18.3438 33.9985V22.048H14.0262V17.1027H18.3438V13.3348C18.3438 9.04916 20.8824 6.67998 24.765 6.67998C26.6252 6.67998 28.5711 7.0144 28.5711 7.0144V11.2236H26.4263C24.3158 11.2236 23.6555 12.5415 23.6555 13.8959V17.1027H28.37L27.6171 22.048H23.6562V34C31.7844 32.7165 38 25.6411 38 17.1027Z" fill="#F8F8F8" fill-opacity="0.74" shape-rendering="crispEdges"/>
</g>
<defs>
<filter id="filter0_d_4_13" x="0" y="0" width="42" height="42" filterUnits="userSpaceOnUse" color-interpolation-filters="sRGB">
<feFlood flood-opacity="0" result="BackgroundImageFix"/>
<feColorMatrix in="SourceAlpha" type="matrix" values="0 0 0 0 0 0 0 0 0 0 0 0 0 0 0 0 0 0 127 0" result="hardAlpha"/>
<feOffset dy="4"/>
<feGaussianBlur stdDeviation="2"/>
<feComposite in2="hardAlpha" operator="out"/>
<feColorMatrix type="matrix" values="0 0 0 0 0 0 0 0 0 0 0 0 0 0 0 0 0 0 0.25 0"/>
<feBlend mode="normal" in2="BackgroundImageFix" result="effect1_dropShadow_4_13"/>
<feBlend mode="normal" in="SourceGraphic" in2="effect1_dropShadow_4_13" result="shape"/>
</filter>
</defs>
</svg>
