<svg width="46" height="46" viewBox="0 0 46 46" fill="none" xmlns="http://www.w3.org/2000/svg">
<path d="M40.25 14.2408L32.5834 20.815M40.25 14.2408C40.2526 13.3515 39.9994 12.4802 39.5208 11.7308C39.0421 10.9813 38.358 10.3852 37.5501 10.0136C36.7422 9.64192 35.8444 9.51037 34.9639 9.63458C34.0833 9.75879 33.257 10.1335 32.5834 10.7142L23 18.9367L13.4167 10.7142C12.7431 10.1335 11.9168 9.75879 11.0362 9.63458C10.1556 9.51037 9.25787 9.64192 8.44995 10.0136C7.64203 10.3852 6.95797 10.9813 6.47928 11.7308C6.0006 12.4802 5.74745 13.3515 5.75002 14.2408M40.25 14.2408V36.4167H32.5834V20.815M32.5834 20.815L23 29.0183L13.4167 20.815M13.4167 20.815L5.75002 14.2408M13.4167 20.815V36.4167H5.75002V14.2408" stroke="#F8F8F8" stroke-width="2" stroke-linecap="round" stroke-linejoin="round"/>
</svg>
