<svg width="35" height="35" viewBox="0 0 35 35" fill="none" xmlns="http://www.w3.org/2000/svg">
<path d="M29.7792 14.8458L18.5354 3.35416C18.3998 3.21748 18.2385 3.10898 18.0608 3.03495C17.8831 2.96091 17.6925 2.92279 17.5 2.92279C17.3075 2.92279 17.1169 2.96091 16.9391 3.03495C16.7614 3.10898 16.6001 3.21748 16.4646 3.35416L5.22082 14.8604C4.94875 15.1347 4.73387 15.4603 4.58867 15.8183C4.44347 16.1763 4.37084 16.5595 4.37499 16.9458V29.1667C4.37386 29.9132 4.65903 30.6318 5.17178 31.1744C5.68453 31.7169 6.38582 32.0423 7.13123 32.0833H27.8687C28.6141 32.0423 29.3154 31.7169 29.8282 31.1744C30.3409 30.6318 30.6261 29.9132 30.625 29.1667V16.9458C30.6261 16.1626 30.3228 15.4096 29.7792 14.8458ZM14.5833 29.1667V20.4167H20.4167V29.1667H14.5833ZM27.7083 29.1667H23.3333V18.9583C23.3333 18.5716 23.1797 18.2006 22.9062 17.9271C22.6327 17.6536 22.2618 17.5 21.875 17.5H13.125C12.7382 17.5 12.3673 17.6536 12.0938 17.9271C11.8203 18.2006 11.6667 18.5716 11.6667 18.9583V29.1667H7.29165V16.8875L17.5 6.46041L27.7083 16.9458V29.1667Z" fill="#F8F8F8"/>
</svg>
