<svg width="36" height="36" viewBox="0 0 36 36" fill="none" xmlns="http://www.w3.org/2000/svg">
<path d="M24.3619 21.105C24.362 21.9898 24.1857 22.8659 23.8433 23.6818C23.5008 24.4976 22.999 25.237 22.3673 25.8567C21.7357 26.4763 20.9867 26.9637 20.1644 27.2905C19.3421 27.6172 18.4628 27.7766 17.5781 27.7594C15.8075 27.6892 14.134 26.9312 12.9135 25.6466C11.6929 24.3619 11.0215 22.6519 11.0419 20.88V11.61C11.0416 11.5968 11.046 11.584 11.0542 11.5737C11.0624 11.5634 11.074 11.5564 11.0869 11.5537C13.3368 11.2145 15.6068 11.0266 17.8819 10.9912C20.0618 11.0256 22.2365 11.2136 24.39 11.5537C24.4024 11.5565 24.4134 11.5637 24.4207 11.5742C24.428 11.5846 24.4311 11.5974 24.4294 11.61L24.3619 21.105Z" stroke="#F8F8F8" stroke-width="3"/>
<path d="M11.0419 14.625L5.06249 11.5144C5.05298 11.5098 5.04496 11.5026 5.03935 11.4936C5.03374 11.4847 5.03076 11.4743 5.03076 11.4638C5.03076 11.4532 5.03374 11.4428 5.03935 11.4339C5.04496 11.4249 5.05298 11.4177 5.06249 11.4131L17.7131 4.98376H17.7637L30.375 11.3456C30.3845 11.3502 30.3925 11.3574 30.3981 11.3664C30.4037 11.3753 30.4067 11.3857 30.4067 11.3963C30.4067 11.4068 30.4037 11.4172 30.3981 11.4261C30.3925 11.4351 30.3845 11.4423 30.375 11.4469L24.4294 14.625" stroke="#F8F8F8" stroke-width="3"/>
<path d="M11.0419 18.1069H9.95626C9.95626 18.1069 8.30251 18.1069 8.30251 20.6494C8.30251 22.995 9.95063 22.995 9.95063 22.995L11.3625 22.9669" stroke="#F8F8F8" stroke-width="3"/>
<path d="M24.3563 18.3937H25.4419C25.4419 18.3937 27.1294 18.3937 27.1294 20.9419C27.1294 23.2875 25.4756 23.2875 25.4756 23.2875H23.9906" stroke="#F8F8F8" stroke-width="3"/>
<path d="M29.655 25.335V11.8294" stroke="#F8F8F8" stroke-width="3"/>
<path d="M29.655 27.9394C30.3726 27.9394 30.9544 27.3576 30.9544 26.64C30.9544 25.9224 30.3726 25.3406 29.655 25.3406C28.9374 25.3406 28.3556 25.9224 28.3556 26.64C28.3556 27.3576 28.9374 27.9394 29.655 27.9394Z" stroke="#F8F8F8" stroke-width="3"/>
<path d="M21.24 26.7356V31.0219H14.5631V26.9719" stroke="#F8F8F8" stroke-width="3"/>
<path d="M24.4294 16.9481C22.2745 16.5593 20.0883 16.371 17.8987 16.3856C15.6 16.34 13.3025 16.5285 11.0419 16.9481" stroke="#F8F8F8" stroke-width="3"/>
</svg>
