<svg width="90" height="90" viewBox="0 0 90 90" fill="none" xmlns="http://www.w3.org/2000/svg">
<rect width="90" height="90" fill="#1E1E1E"/>
<g clip-path="url(#clip0_0_1)">
<rect width="1440" height="3657" transform="translate(-667 -1049)" fill="white"/>
<g clip-path="url(#clip1_0_1)">
<path d="M45 35.8006C54.2585 35.8006 61.7639 28.2951 61.7639 19.0366C61.7639 9.77818 54.2585 2.27271 45 2.27271C35.7415 2.27271 28.2361 9.77818 28.2361 19.0366C28.2361 28.2951 35.7415 35.8006 45 35.8006Z" fill="white" stroke="black" stroke-width="0.498316"/>
<path d="M63.9236 52.74H26.0764C23.9764 52.74 22.1497 54.1788 21.6576 56.2203L15.4148 82.1167C14.7255 84.976 16.8924 87.7273 19.8336 87.7273H70.1664C73.1076 87.7273 75.2745 84.976 74.5852 82.1167L68.3424 56.2203C67.8503 54.1788 66.0236 52.74 63.9236 52.74Z" fill="white" stroke="black" stroke-width="0.498316"/>
<path d="M50.9594 52.74H45H39.0403L35.8079 75.606L45 87.7273L54.1918 75.606L50.9594 52.74Z" fill="white" stroke="black" stroke-width="0.498316"/>
<path d="M45 38.0733C55.497 38.0733 64.0367 29.5336 64.0367 19.0367C64.0367 8.5397 55.4967 0 45 0C34.5033 0 25.9633 8.5397 25.9633 19.0367C25.9633 29.5336 34.503 38.0733 45 38.0733ZM45 4.54545C52.9906 4.54545 59.4912 11.0461 59.4912 19.0367C59.4912 27.0273 52.9906 33.5279 45 33.5279C37.0094 33.5279 30.5088 27.0273 30.5088 19.0367C30.5088 11.0461 37.0094 4.54545 45 4.54545Z" fill="#22313F" stroke="black" stroke-width="0.498316"/>
<path d="M76.7945 81.5839L70.5518 55.6876C69.8109 52.6139 67.0855 50.4673 63.9233 50.4673C59.9582 50.4673 29.6203 50.4673 26.0761 50.4673C22.9142 50.4673 20.1885 52.6139 19.4476 55.6876L13.2048 81.5839C12.1715 85.8712 15.4182 90 19.8333 90H70.1664C74.5761 90 77.83 85.8773 76.7945 81.5839ZM48.9855 55.0127L51.8091 74.987L45 83.9661L38.1909 74.987L41.0146 55.0127H48.9855ZM17.6239 82.6494L23.8667 56.7527C24.1136 55.7282 25.0221 55.0127 26.0764 55.0127H36.4236L33.5576 75.2879C33.4727 75.8879 33.6309 76.4967 33.997 76.9791L40.4242 85.4546H19.8333C18.3636 85.4546 17.2791 84.08 17.6239 82.6494ZM70.1664 85.4546H49.5758L56.0027 76.9794C56.3688 76.4967 56.527 75.8879 56.4421 75.2882L53.5761 55.013H63.9233C64.9773 55.013 65.8861 55.7285 66.133 56.7533L72.3758 82.6497C72.7203 84.0788 71.6376 85.4546 70.1664 85.4546Z" fill="#22313F" stroke="black" stroke-width="0.498316"/>
</g>
</g>
<defs>
<clipPath id="clip0_0_1">
<rect width="1440" height="3657" fill="white" transform="translate(-667 -1049)"/>
</clipPath>
<clipPath id="clip1_0_1">
<rect width="90" height="90" fill="white"/>
</clipPath>
</defs>
</svg>
